<?xml version="1.0" encoding="UTF-8"?>
<svg id="uuid-c1ff7425-767a-4ebd-a5c2-01d2aa3353d0" data-name="Layer 1" xmlns="http://www.w3.org/2000/svg" xmlns:xlink="http://www.w3.org/1999/xlink" viewBox="0 0 512 512">
  <defs>
    <style>
      .uuid-bb25179f-2b36-4897-98ed-e88c48d9ee75 {
        fill: url(#uuid-496230df-7658-4fe8-a4f6-99a55efc6f6b);
      }
    </style>
    <linearGradient id="uuid-496230df-7658-4fe8-a4f6-99a55efc6f6b" x1="-980.91" y1="2051.62" x2="-653.96" y2="2051.62" gradientTransform="translate(-1795.62 -471.89) rotate(-90)" gradientUnits="userSpaceOnUse">
      <stop offset="0" stop-color="#fff"/>
      <stop offset="1" stop-color="#19a07e"/>
    </linearGradient>
  </defs>
  <path id="uuid-81292305-0382-44b2-9baa-f7636db9ee65" data-name="Union" class="uuid-bb25179f-2b36-4897-98ed-e88c48d9ee75" d="M92.52,259.51c0-60.57,42.61-91.45,65.9-101.29,.07-.03,.13-.05,.2-.07,12.23-23.71,45.57-65.62,93.87-65.62,60.57,0,91.45,42.61,101.29,65.9,.03,.07,.05,.14,.07,.2,23.71,12.23,65.62,45.57,65.62,93.87,0,60.57-42.61,91.45-65.9,101.29-.07,.03-.14,.05-.2,.07-12.23,23.71-45.57,65.62-93.87,65.62-60.57,0-91.45-42.61-101.29-65.9-.03-.07-.05-.13-.07-.2-23.71-12.23-65.62-45.57-65.62-93.87Zm84.68-1.93c-11.98,11.86-30.47,45.57-16.82,94.27,18.96,5.92,59.6,9.44,95.29-17.2,.58-.43,1.4-.37,1.9,.14,11.86,11.98,45.57,30.47,94.27,16.82,5.92-18.96,9.44-59.6-17.19-95.29-.43-.58-.37-1.4,.14-1.9,11.98-11.86,30.47-45.57,16.82-94.27-18.97-5.91-59.6-9.44-95.29,17.19-.58,.43-1.4,.37-1.9-.14-11.86-11.98-45.57-30.47-94.27-16.82-5.91,18.97-9.44,59.6,17.2,95.29,.43,.58,.37,1.4-.14,1.9Z"/>
</svg>