<?xml version="1.0" encoding="UTF-8"?>
<svg id="uuid-4cf7ba8a-b3f6-479c-8730-1ff2a2091516" data-name="Layer 1" xmlns="http://www.w3.org/2000/svg" xmlns:xlink="http://www.w3.org/1999/xlink" viewBox="0 0 512 512">
  <defs>
    <style>
      .uuid-f66eacea-5a3e-4b7b-9eda-cade2848428e {
        fill: url(#uuid-ba52d8cb-c730-4f86-bde8-6b05adbc0482);
      }
    </style>
    <linearGradient id="uuid-ba52d8cb-c730-4f86-bde8-6b05adbc0482" x1="256" y1="1650.35" x2="256" y2="1323.4" gradientTransform="translate(0 1742.87) scale(1 -1)" gradientUnits="userSpaceOnUse">
      <stop offset="0" stop-color="#006da6"/>
      <stop offset="1" stop-color="#f6904d"/>
    </linearGradient>
  </defs>
  <path id="uuid-a0641a12-2997-4454-84f8-b02af8452306" data-name="Union" class="uuid-f66eacea-5a3e-4b7b-9eda-cade2848428e" d="M252.49,92.52c60.57,0,91.45,42.61,101.29,65.9,.03,.07,.05,.13,.07,.2,23.71,12.23,65.62,45.57,65.62,93.87,0,60.57-42.61,91.45-65.9,101.29-.07,.03-.14,.05-.2,.07-12.23,23.71-45.57,65.62-93.87,65.62-60.57,0-91.45-42.61-101.29-65.9-.03-.07-.05-.14-.07-.2-23.71-12.23-65.62-45.57-65.62-93.87,0-60.57,42.61-91.45,65.9-101.29,.07-.03,.13-.05,.2-.07,12.23-23.71,45.57-65.62,93.87-65.62Zm1.93,84.68c-11.86-11.98-45.57-30.47-94.27-16.82-5.92,18.96-9.44,59.6,17.2,95.29,.43,.58,.37,1.4-.14,1.9-11.98,11.86-30.47,45.57-16.82,94.27,18.96,5.92,59.6,9.44,95.29-17.19,.58-.43,1.4-.37,1.9,.14,11.86,11.98,45.57,30.47,94.27,16.82,5.91-18.97,9.44-59.6-17.19-95.29-.43-.58-.37-1.4,.14-1.9,11.98-11.86,30.47-45.57,16.82-94.27-18.97-5.91-59.6-9.44-95.29,17.2-.58,.43-1.4,.37-1.9-.14Z"/>
</svg>