<svg width="251" height="58" viewBox="0 0 251 58" fill="none" xmlns="http://www.w3.org/2000/svg">
<g id="Group 1">
<path id="Subtract" d="M29 0C45.0163 0 58 12.9837 58 29C58 45.0163 45.0163 58 29 58C12.9837 58 0 45.0163 0 29C0 12.9837 12.9837 0 29 0ZM13 13V30L13.0078 30.002C13.2732 38.8824 20.5552 46 29.5 46C38.6127 46 46 38.6127 46 29.5C46 20.5555 38.883 13.2737 30.0029 13.0078L30 13H13Z" fill="#FDFDFD"/>
<path id="Subtract_2" d="M222 0C238.016 0 251 12.9837 251 29C251 45.0163 238.016 58 222 58C205.984 58 193 45.0163 193 29C193 12.9837 205.984 0 222 0ZM206 13V30L206.008 30.002C206.273 38.8824 213.555 46 222.5 46C231.613 46 239 38.6127 239 29.5C239 20.5555 231.883 13.2737 223.003 13.0078L223 13H206Z" fill="#FDFDFD"/>
<path id="Subtract_3" d="M94.0004 1.00645C116.4 0.606652 121 19.5064 120.5 29.0065V57.5065H109V28.0006L108.989 27.9996C108.72 20.9125 102.789 15.2201 95.4271 15.0074L95.4242 15.0006H81.0004V57.5065H67.0004V28.0065C66.6671 19.1731 71.6005 1.40645 94.0004 1.00645Z" fill="#FDFDFD"/>
<path id="Subtract_4" d="M157.016 1.00586C179.415 0.606064 184.016 19.5058 183.516 29.0059V57.5059H172.016V28L172.004 27.999C171.736 20.9119 165.804 15.2196 158.442 15.0068L158.439 15H144.016V57.5059H130.016V28.0059C129.682 19.1725 134.616 1.40586 157.016 1.00586Z" fill="#FDFDFD"/>
</g>
</svg>
