<svg width="117" height="117" viewBox="0 0 117 117" fill="none" xmlns="http://www.w3.org/2000/svg">
<path id="Union" d="M57 0C78.5822 -2.83016e-06 89.5835 15.1815 93.0928 23.4805C93.1028 23.5043 93.111 23.5281 93.1172 23.5518C101.565 27.9104 116.5 39.788 116.5 57C116.5 78.5822 101.318 89.5835 93.0195 93.0928C92.9954 93.103 92.9713 93.111 92.9473 93.1172C88.5885 101.565 76.7117 116.5 59.5 116.5C37.9178 116.5 26.9165 101.318 23.4072 93.0195C23.397 92.9953 23.388 92.9713 23.3818 92.9473C14.9336 88.5881 0 76.7112 0 59.5C0 37.9178 15.1815 26.9165 23.4805 23.4072C23.5044 23.3971 23.528 23.388 23.5518 23.3818C27.9107 14.9337 39.7886 2.25701e-06 57 0ZM57.6875 30.1738C53.4618 25.9049 41.4513 19.3155 24.0967 24.1797C21.989 30.9372 20.7334 45.4173 30.2236 58.1338C30.3778 58.3407 30.3571 58.6309 30.1738 58.8125C25.905 63.0382 19.316 75.0482 24.1797 92.4023C30.9371 94.5101 45.4171 95.7667 58.1338 86.2764C58.3407 86.1222 58.6309 86.1429 58.8125 86.3262C63.0382 90.595 75.0481 97.1831 92.4023 92.3193C94.5099 85.5615 95.7663 71.0824 86.2764 58.3662C86.1222 58.1593 86.1429 57.8691 86.3262 57.6875C90.5951 53.4617 97.1836 41.4514 92.3193 24.0967C85.5614 21.9892 71.0822 20.7338 58.3662 30.2236C58.1593 30.3778 57.8691 30.3571 57.6875 30.1738Z" fill="url(#paint0_linear_1_62)"/>
<defs>
<linearGradient id="paint0_linear_1_62" x1="58.25" y1="0" x2="58.25" y2="116.5" gradientUnits="userSpaceOnUse">
<stop stop-color="#97DCFB"/>
<stop offset="1" stop-color="#E06E30"/>
</linearGradient>
</defs>
</svg>
